<?xml version="1.0" encoding="iso-8859-1"?>
<!-- Uploaded to: SVG Repo, www.svgrepo.com, Generator: SVG Repo Mixer Tools -->
<svg height="800px" width="800px" version="1.1" id="Capa_1" xmlns="http://www.w3.org/2000/svg" xmlns:xlink="http://www.w3.org/1999/xlink" 
	 viewBox="0 0 496.518 496.518" xml:space="preserve">
<g>
	<path style="fill:#010002;" d="M357.226,93.918C357.226,0,291.653,0,248.263,0S139.299,0,139.299,93.918
		c0,29.084,6.08,56.177,16.428,79.237c-20.931,22.549-33.831,52.657-33.831,85.854c0,65.671,50.105,119.612,114.174,125.749v11.697
		c-22.134,5.487-38.611,25.459-38.611,49.259c0,28.011,22.793,50.804,50.804,50.804c26.418,0,48.162-20.273,50.56-46.073
		c-4.007,5.771-9.697,10.234-16.347,12.802c-3.959,1.528-8.218,2.447-12.713,2.447c-1.349,0-2.634-0.252-3.942-0.398
		c-17.663-1.983-31.449-16.802-31.449-34.994c0-2.544,0.293-5.015,0.805-7.405c1.227-5.755,3.95-10.892,7.6-15.241
		c0.732-0.87,1.406-1.788,2.219-2.585c4.178-4.105,9.413-7.047,15.209-8.681c0.081-0.024,0.163-0.057,0.244-0.073v-11.559
		c64.061-6.137,114.174-60.078,114.174-125.749c0-33.189-12.9-63.305-33.831-85.854C351.146,150.102,357.226,123.002,357.226,93.918
		z M289.003,180.893l12.973-22.28l7.104,4.137l-12.973,22.28L289.003,180.893z M258.537,179.341h-20.549v-33.994h20.549V179.341z
		 M242.101,217.83c0-0.122,0.065-0.219,0.065-0.333v2.317v0.065c-0.024,0-0.049,0-0.065-0.008V217.83z M187.445,162.75l7.104-4.137
		l12.973,22.28l-7.104,4.137L187.445,162.75z M134.13,248.734h34.14v20.549h-34.14V248.734z M151.59,319.607l-4.113-7.113
		l22.37-12.924l4.113,7.113L151.59,319.607z M169.847,218.455l-22.37-12.924l4.113-7.113l22.37,12.924L169.847,218.455z
		 M194.549,359.405l-7.104-4.137l12.973-22.28l7.104,4.137L194.549,359.405z M237.988,372.687v-33.994h20.549v33.994H237.988z
		 M248.263,271.633c-4.723,0-8.787-2.617-10.949-6.454h-46.439c-3.406,0-6.161-2.756-6.161-6.161s2.756-6.161,6.161-6.161h46.439
		c1.13-2.008,2.78-3.658,4.788-4.788v-3.764c0.024,0,0.049,0,0.065,0.008v3.723c1.813-1.008,3.869-1.634,6.096-1.634
		c2.227,0,4.284,0.626,6.096,1.634c0.024,0.016,0.049,0.024,0.065,0.041c1.951,1.097,3.56,2.682,4.69,4.609
		c1.097,1.87,1.772,4.024,1.772,6.348C260.887,265.983,255.237,271.633,248.263,271.633z M301.977,359.405l-12.973-22.28
		l7.104-4.137l12.973,22.28L301.977,359.405z M344.936,319.607l-22.37-12.924l4.113-7.113l22.37,12.924L344.936,319.607z
		 M362.396,269.283h-34.14v-20.549h34.14V269.283z M344.928,198.419l4.113,7.113l-22.37,12.924l-4.113-7.113L344.928,198.419z
		 M248.263,132.642c-27.434,0-52.746,8.836-73.458,23.679c-7.039-18.436-11.12-39.708-11.12-62.411
		c0-64.85,31.953-69.532,84.578-69.532s84.578,4.682,84.578,69.532c0,22.703-4.081,43.976-11.12,62.411
		C301.009,141.478,275.697,132.642,248.263,132.642z"/>
</g>
</svg>